<?xml version="1.0" encoding="utf-8"?>
<!-- Generator: Adobe Illustrator 15.1.0, SVG Export Plug-In . SVG Version: 6.00 Build 0)  -->
<!DOCTYPE svg PUBLIC "-//W3C//DTD SVG 1.1//EN" "http://www.w3.org/Graphics/SVG/1.1/DTD/svg11.dtd">
<svg version="1.1" id="Layer_1" xmlns="http://www.w3.org/2000/svg" xmlns:xlink="http://www.w3.org/1999/xlink" x="0px" y="0px"
	 width="863.999px" height="1020.767px" viewBox="0 0 863.999 1020.767" enable-background="new 0 0 863.999 1020.767"
	 xml:space="preserve">
<g>
	<path d="M400.648,790.833C179.734,790.833,0,660.333,0,499.934c0-160.41,179.734-290.906,400.648-290.906
		c220.913,0,400.639,130.496,400.639,290.906C801.288,660.333,621.561,790.833,400.648,790.833z M400.648,226.449
		c-211.312,0-383.227,122.684-383.227,273.484c0,150.798,171.914,273.481,383.227,273.481
		c211.311,0,383.225-122.684,383.225-273.481C783.874,349.133,611.959,226.449,400.648,226.449z"/>
	<path d="M479.038,839.606c-203.631,0-369.288-165.66-369.288-369.286c0-203.629,165.656-369.289,369.288-369.289
		c203.625,0,369.281,165.66,369.281,369.289C848.319,673.946,682.663,839.606,479.038,839.606z M479.038,118.449
		c-194.022,0-351.874,157.848-351.874,351.871c0,194.021,157.852,351.868,351.874,351.868
		c194.016,0,351.867-157.848,351.867-351.868C830.905,276.297,673.053,118.449,479.038,118.449z"/>
	<g>
		<path d="M292.398,502.094c0-5.648,0.867-10.68,2.617-15.109c1.738-4.422,4.09-8.164,7.051-11.234
			c2.957-3.062,6.406-5.395,10.352-7c3.934-1.602,8.094-2.406,12.488-2.406c4.25,0,8.098,0.891,11.555,2.668
			c3.438,1.777,6.316,3.848,8.613,6.223l-8.469,9.504c-1.738-1.602-3.496-2.855-5.273-3.762s-3.848-1.359-6.219-1.359
			c-2.363,0-4.582,0.504-6.641,1.52c-2.051,1.012-3.848,2.457-5.383,4.336c-1.531,1.879-2.734,4.18-3.602,6.898
			c-0.871,2.715-1.309,5.781-1.309,9.195c0,7.039,1.504,12.496,4.492,16.355c2.996,3.867,7.012,5.801,12.02,5.801
			c2.793,0,5.234-0.555,7.316-1.668c2.09-1.113,3.973-2.578,5.645-4.391l8.465,9.297c-2.859,3.344-6.113,5.855-9.773,7.531
			c-3.652,1.672-7.609,2.508-11.855,2.508c-4.395,0-8.535-0.75-12.441-2.246c-3.898-1.5-7.316-3.715-10.246-6.641
			c-2.918-2.926-5.223-6.566-6.895-10.918C293.238,512.84,292.398,507.801,292.398,502.094z"/>
		<path d="M393.305,467.602h42.648v12.957h-27.285v13.691h23.203v12.859h-23.203v15.676h28.328v12.961h-43.691V467.602z"/>
		<path d="M492.444,516.617c2.445,2.094,5.141,3.801,8.109,5.125c2.961,1.316,5.867,1.98,8.727,1.98c3.203,0,5.586-0.59,7.164-1.777
			c1.562-1.188,2.344-2.781,2.344-4.809c0-1.043-0.227-1.949-0.68-2.715c-0.445-0.762-1.109-1.445-1.977-2.039
			c-0.883-0.586-1.93-1.148-3.148-1.672c-1.211-0.523-2.555-1.094-4.023-1.719l-8.875-3.766c-1.742-0.695-3.438-1.605-5.07-2.719
			c-1.641-1.113-3.102-2.422-4.391-3.922s-2.32-3.242-3.086-5.219c-0.766-1.992-1.148-4.238-1.148-6.75
			c0-2.781,0.586-5.418,1.781-7.891c1.18-2.469,2.852-4.625,5.008-6.477c2.156-1.848,4.727-3.293,7.688-4.336
			c2.961-1.039,6.219-1.57,9.773-1.57c3.969,0,7.891,0.77,11.758,2.301c3.867,1.535,7.258,3.766,10.188,6.691l-7.844,9.719
			c-2.227-1.746-4.453-3.09-6.688-4.023c-2.227-0.945-4.695-1.414-7.414-1.414c-2.656,0-4.758,0.543-6.328,1.621
			c-1.562,1.082-2.344,2.598-2.344,4.551c0,1.047,0.258,1.93,0.781,2.66c0.516,0.73,1.25,1.395,2.188,1.988
			c0.945,0.586,2.039,1.152,3.289,1.672c1.266,0.523,2.617,1.094,4.086,1.723l8.781,3.559c4.18,1.672,7.469,3.969,9.883,6.895
			c2.391,2.926,3.594,6.793,3.594,11.602c0,2.863-0.57,5.559-1.719,8.102c-1.156,2.539-2.828,4.77-5.023,6.688
			c-2.195,1.914-4.891,3.449-8.094,4.598c-3.203,1.145-6.828,1.727-10.867,1.727c-4.469,0-8.906-0.824-13.336-2.461
			c-4.422-1.633-8.375-4.094-11.859-7.363L492.444,516.617z"/>
		<path d="M597.459,480.559h-18.703v-12.957h52.883v12.957h-18.711v55.188h-15.469V480.559z"/>
		<path d="M706.897,519.543h-20.789l-4.18,16.203h-15.68l21.328-68.145h18.492l21.328,68.145h-16.305L706.897,519.543z
			 M703.772,507.527l-1.57-6.273c-0.977-3.414-1.914-7.035-2.82-10.871c-0.906-3.832-1.805-7.523-2.719-11.078h-0.414
			c-0.844,3.625-1.695,7.336-2.562,11.133c-0.875,3.793-1.797,7.402-2.773,10.816l-1.672,6.273H703.772z"/>
	</g>
	<path d="M526.069,895.349c-186.342,0-337.936-151.598-337.936-337.935c0-186.336,151.594-337.934,337.936-337.934
		c186.336,0,337.93,151.598,337.93,337.934C863.999,743.751,712.405,895.349,526.069,895.349z M526.069,236.902
		c-176.733,0-320.514,143.777-320.514,320.512c0,176.731,143.781,320.517,320.514,320.517
		c176.727,0,320.508-143.785,320.508-320.517C846.577,380.68,702.795,236.902,526.069,236.902z"/>
	<path d="M541.741,1020.767c-86.86,0-168.225-53.637-229.092-151.031c-60.078-96.121-93.164-223.738-93.164-359.353
		c0-135.613,33.086-263.234,93.164-359.355C373.516,53.637,454.881,0,541.741,0c86.867,0,168.227,53.637,229.102,151.027
		c60.07,96.121,93.156,223.742,93.156,359.355c0,135.614-33.086,263.228-93.156,359.353
		C709.967,967.13,628.608,1020.767,541.741,1020.767z M541.741,17.418c-168.084,0-304.834,221.141-304.834,492.965
		c0,271.821,136.75,492.966,304.834,492.966c168.094,0,304.836-221.145,304.836-492.966
		C846.577,238.559,709.834,17.418,541.741,17.418z"/>
</g>
</svg>
